<svg xmlns="http://www.w3.org/2000/svg" viewBox="0 0 24 24" fill="currentColor">
  <path d="M12 .5C5.73.5.75 5.48.75 11.75c0 4.99 3.2 9.22 7.64 10.71.56.1.77-.24.77-.54v-1.9c-3.11.67-3.77-1.5-3.77-1.5-.51-1.29-1.25-1.63-1.25-1.63-1.02-.7.08-.69.08-.69 1.13.08 1.72 1.16 1.72 1.16 1 .17 1.64-.61 1.64-.61.1-.72.39-1.22.71-1.5-2.48-.28-5.08-1.24-5.08-5.52 0-1.22.43-2.22 1.14-3-.12-.28-.5-1.42.1-2.97 0 0 .94-.3 3.07 1.15a10.6 10.6 0 0 1 5.59 0c2.13-1.45 3.07-1.15 3.07-1.15.6 1.55.22 2.69.1 2.97.71.78 1.14 1.78 1.14 3 0 4.29-2.6 5.24-5.09 5.52.4.34.77 1.02.77 2.06v3.06c0 .3.2.65.78.54 4.44-1.49 7.63-5.72 7.63-10.71C23.25 5.48 18.27.5 12 .5z"/>
</svg>
