<svg xmlns="http://www.w3.org/2000/svg" viewBox="0 0 48 48">
  <path fill="#EA4335" d="M24 9.5c3.54 0 6.67 1.22 9.15 3.22l6.85-6.85C35.9 2.24 30.47 0 24 0 14.62 0 6.51 5.38 2.56 13.22l7.98 6.19C12.4 13.06 17.74 9.5 24 9.5z"/>
  <path fill="#4285F4" d="M46.98 24.55c0-1.64-.15-3.22-.43-4.75H24v9.02h12.95c-.56 3.02-2.26 5.58-4.8 7.3l7.43 5.77C43.98 37.33 46.98 31.55 46.98 24.55z"/>
  <path fill="#FBBC05" d="M10.54 28.41c-.48-1.43-.76-2.96-.76-4.41s.27-2.98.76-4.41l-7.98-6.19C.92 16.57 0 20.17 0 24s.92 7.43 2.56 10.59l7.98-6.18z"/>
  <path fill="#34A853" d="M24 48c6.48 0 11.93-2.13 15.9-5.81l-7.43-5.77c-2.07 1.39-4.71 2.21-8.47 2.21-6.26 0-11.6-3.56-13.46-8.59l-7.98 6.18C6.51 42.62 14.62 48 24 48z"/>
</svg>
